<svg width="44" height="56" viewBox="0 0 44 56" fill="none" xmlns="http://www.w3.org/2000/svg">
<path d="M26.8726 13.288C26.8726 10.8245 28.8705 8.8266 31.334 8.8266C33.7974 8.8266 35.7954 10.8245 35.7954 13.288V18.1796C35.7954 20.6431 33.7974 22.641 31.334 22.641" stroke="#737479" stroke-miterlimit="10"/>
<path d="M10.8186 54.3128C13.8597 56.352 17.9616 55.6978 20.2011 52.81C23.3423 48.7611 26.4895 45.3547 28.7939 43.6868C29.9431 42.8558 32.2769 41.076 33.7739 40.74" stroke="#737479" stroke-miterlimit="10"/>
<path d="M22.8827 28.4697C25.906 24.692 28.6171 21.8513 31.1513 19.3878C34.2336 16.3939 31.9469 13.7889 30.279 13.288C20.5488 19.1933 8.40227 30.5914 1 47.7298" stroke="#737479" stroke-miterlimit="10"/>
<path d="M20.1304 29.0119C22.2933 28.4285 25.3697 28.0984 27.8686 28.1809C30.3674 28.2634 32.6718 28.7821 33.2965 33.3613" stroke="#737479" stroke-miterlimit="10"/>
<path d="M25.0397 33.5028C28.7821 32.9193 34.8288 30.9214 35.7895 37.534" stroke="#737479" stroke-miterlimit="10"/>
<path d="M29.283 37.4161C32.6128 36.9151 36.8562 36.5026 37.6046 39.6615C38.3531 42.8204 36.8149 44.0463 34.3161 44.7948C31.8231 45.5432 29.5541 45.3016 28.7938 43.6868" stroke="#737479" stroke-miterlimit="10"/>
<path d="M16.5707 24.3737C15.9754 21.4446 13.9775 18.6983 11.7321 19.7827C11.2311 24.6095 10.518 28.8469 8.04865 34.8819" stroke="#737479" stroke-miterlimit="10"/>
<path d="M35.7895 8.86785L40.0564 4.6363" stroke="#737479" stroke-miterlimit="10"/>
<path d="M37.6106 13.3175L43.5041 12.1388" stroke="#737479" stroke-miterlimit="10"/>
<path d="M37.5988 18.3093L43.51 19.3642" stroke="#737479" stroke-miterlimit="10"/>
<path d="M31.3575 7.0055L31.3811 1" stroke="#737479" stroke-miterlimit="10"/>
<path d="M35.7895 22.6057L40.0564 26.8372" stroke="#737479" stroke-miterlimit="10"/>
<path d="M26.9079 8.8266L22.6764 4.56558" stroke="#737479" stroke-miterlimit="10"/>
<path d="M25.0456 13.2644L19.0401 13.2408" stroke="#737479" stroke-miterlimit="10"/>
</svg>
