<svg width="677" height="576" viewBox="0 0 677 576" fill="none" xmlns="http://www.w3.org/2000/svg">
<path d="M313.815 193.438C342.93 193.438 370.302 204.776 390.89 225.363C411.477 245.95 422.815 273.323 422.815 302.438C422.815 331.553 411.477 358.925 390.89 379.513C370.303 400.1 342.93 411.438 313.815 411.438C284.7 411.438 257.328 400.1 236.74 379.513C216.153 358.926 204.815 331.553 204.815 302.438C204.815 273.323 216.153 245.951 236.74 225.363C257.328 204.776 284.7 193.438 313.815 193.438ZM313.815 58.4382C179.058 58.4382 69.815 167.681 69.815 302.438C69.815 437.195 179.058 546.438 313.815 546.438C448.573 546.438 557.815 437.195 557.815 302.438C557.815 167.681 448.573 58.4382 313.815 58.4382Z" fill="#00E190"/>
<path d="M550.292 294.781L492.854 237.344C482.114 226.604 464.702 226.604 453.963 237.344C443.224 248.083 443.224 265.495 453.963 276.235L464.454 286.726H433V341.726H464.455L453.963 352.218C443.224 362.957 443.224 380.369 453.963 391.109C459.332 396.479 466.37 399.164 473.408 399.164C480.446 399.164 487.484 396.479 492.853 391.109L550.291 333.671C555.448 328.514 558.346 321.519 558.346 314.226C558.347 306.932 555.449 299.938 550.292 294.781Z" fill="#00E190"/>
<path d="M293.116 327.768C298.788 328.668 304.571 329.126 310.425 329.126C322.655 329.126 334.577 327.125 345.818 323.279L364.164 384.404L343.787 390.178H336.995L337.674 426.178L296.58 411.914L284.693 381.688L293.116 327.768Z" fill="#EAE4E8"/>
<path d="M48.315 224.669C31.21 246.658 17.608 271.972 8.612 300.044L26.674 307.869L71.629 322.276L72.045 314.301L114.351 264.639L101.729 250.608L79.381 234.625L71.367 236.775L48.315 224.669Z" fill="#EAE4E8"/>
<path d="M123.761 161.256L137.657 129.233L152.415 116.961L186.362 75.3692L139.585 57.3132C115.483 87.9852 99.073 124.035 91.699 162.2L123.761 161.256Z" fill="#EAE4E8"/>
<path d="M281.337 246.548L270.047 235.876L247.304 251.484L227.734 241.74L182.597 288.844L181.716 296.781L176.926 355.368L181.896 375.492L196.812 396.258L201.619 395.124L207.092 404.52L243.527 390.897C236.298 367.576 237.108 342.671 246.039 319.548C255.008 296.329 271.248 277.284 292.407 264.881L281.337 246.548Z" fill="#EAE4E8"/>
<path d="M138.638 424.403L146.525 365.484L121.247 369.323L101.065 364.597L51.067 333.685L15.89 365.167L0 376.786C36.089 417.11 82.562 442.62 131.762 452.891L138.638 424.403Z" fill="#EAE4E8"/>
<path d="M170.918 434.319L162.427 427.527L113.182 468.961L89.06 485.603C105.646 508.116 126.007 527.676 149.209 543.351L195.031 485.603V480.509L223.073 430.317C217.942 426.706 213.085 422.625 208.557 418.097C205.497 415.037 202.641 411.827 199.997 408.484L170.918 434.319Z" fill="#EAE4E8"/>
<path d="M296.701 451.954L278.865 400.377C263.223 405.745 246.681 407.447 230.294 405.383L229.053 462.863L231.441 467.363L241.641 461.95L296.701 451.954Z" fill="#EAE4E8"/>
<path d="M203.741 492.194L178.003 561.274C223.169 574.264 272.565 574.369 320.626 558.755C323.786 557.728 326.911 556.643 330 555.502L329.242 541.053L341.719 529.995L334.817 514.245L291.326 513.376L270.682 488.301L214.723 488.626L203.741 492.194Z" fill="#EAE4E8"/>
<path d="M337.118 554.305C415.141 589.598 502.777 580.419 570.405 536.607L563.338 522.922L543.16 500.275L525.085 503.742L506.233 488.3L466.155 503.069L411.933 502.857L391.129 498.885L385.057 495.841L369.529 528.327L363.377 544.385L346.729 543.49L337.118 554.305Z" fill="#EAE4E8"/>
<path d="M409.512 466.274L430.628 416.332L432.466 373.659L434.43 337.385L423.671 307.671L411.422 301.181L400.038 292.156L386.406 269.52L339.219 300.092C340.983 301.882 342.694 303.741 344.347 305.665C363.324 327.746 372.566 355.895 370.371 384.927C369.098 401.764 364.067 417.729 355.757 431.873L409.512 466.274Z" fill="#EAE4E8"/>
<path d="M583.927 519.551C619.022 504.181 650.916 480.353 676.296 448.599L665.736 440.951L659.659 427.34L670.523 399.984L643.424 374.487L619.006 392.568L600.149 411.078L594.01 424.244L590.538 437.664L564.129 455.02L528.388 461.522L544.502 479.803L562.9 479.298L579.16 504.904L583.927 519.551Z" fill="#EAE4E8"/>
<path d="M498.963 113.846L520.288 120.27L553.663 151.723L582.696 199.728L599.611 223.817L614.325 226.201L626.512 221.566C625.298 217.853 623.991 214.151 622.587 210.461C600.101 151.333 557.112 106.018 504.795 79.5322L498.963 113.846Z" fill="#EAE4E8"/>
<path d="M318.419 47.7312L341.414 42.2072L348.786 62.7922L388.256 50.7632L459.579 42.8752L486.395 52.1112L489.139 17.4132C430.244 -6.05577 362.454 -6.62777 300.402 20.7502L318.419 47.7312Z" fill="#EAE4E8"/>
<path d="M490.925 278.673L492.623 265.088L481.415 231.402L454.245 238.257L408.9 248.494C418.877 263.878 424.777 281.52 426.041 300.069L481.754 307.638L490.925 278.673Z" fill="#EAE4E8"/>
<path d="M530.118 258.358L493.215 253.604L494.913 240.019L483.706 206.333L456.536 213.189L433.781 173.824L414.444 147.969L388.951 138.132L394.724 104.17L462.309 128.283L482.381 148.321L500.03 161.906L520.045 203.168L530.118 258.358Z" fill="#EAE4E8"/>
<path d="M389.747 222.193L344.53 226.969L313.045 234.118L293.69 253.406L316.679 271.077L311.844 281.936L324.399 294.523C334.21 285.683 345.668 278.634 358.367 273.759C365.656 270.961 373.121 268.969 380.656 267.78L389.747 222.193Z" fill="#EAE4E8"/>
<path d="M327.539 209.615C339.278 210.742 350.62 213.734 361.217 218.448L367.609 201.859H379.496L386.288 173.67L392.062 139.708L351.307 133.255L345.533 163.481L339.08 163.821L334.665 180.463L327.539 209.615Z" fill="#EAE4E8"/>
<path d="M249.177 172.893L290.02 158.122L312.042 156.583L333.859 161.867L337.103 144.958L343.517 144.169L347.168 113.613L348.024 91.7652L324.631 88.2932L263.884 95.9442L230.734 128.221L242.894 151.203L249.177 172.893Z" fill="#EAE4E8"/>
<path d="M209.495 247.303C212.542 244.468 215.768 241.789 219.166 239.28C242.588 221.986 271.343 214.848 300.134 219.181C303.661 219.712 307.137 220.407 310.553 221.261L321.939 193.494L301.792 183.593L279.962 180.308L236.885 185.846L209.693 193.087L181.365 223.855L194.706 231.816L209.495 247.303Z" fill="#EAE4E8"/>
<path d="M196.737 95.3512L216.209 112.332L251.53 82.4452L312.662 79.0492L308.266 46.9052C305.191 46.7902 302.101 46.7322 298.998 46.7322C255.772 46.7322 215.171 57.9732 179.958 77.6902L196.737 95.3512Z" fill="#EAE4E8"/>
<path d="M159.342 225.895L140.174 245.731L119.052 240.092L104.564 227.997L80.172 215.351L72.544 218.618L48.006 209.911C57.5 193.273 68.858 177.955 81.75 164.192L109.387 180.475L138.208 160.779L157.235 158.257L208.122 141.146L214.538 166.343L215.544 188.902L188.225 195.648L159.342 225.895Z" fill="#EAE4E8"/>
</svg>
