<svg width="488" height="488" viewBox="0 0 488 488" fill="none" xmlns="http://www.w3.org/2000/svg">
<path d="M244 135C273.115 135 300.487 146.338 321.075 166.925C341.662 187.513 353 214.885 353 244C353 273.115 341.662 300.487 321.075 321.075C300.487 341.662 273.115 353 244 353C214.885 353 187.513 341.662 166.925 321.075C146.338 300.487 135 273.115 135 244C135 214.885 146.338 187.513 166.925 166.925C187.513 146.338 214.885 135 244 135ZM244 0C109.242 0 0 109.243 0 244C0 378.758 109.242 488 244 488C378.757 488 488 378.758 488 244C488 109.243 378.757 0 244 0Z" fill="white"/>
<path d="M400.591 302.663L393.047 306.423L388.459 309.895L384.032 310.719L372.179 310.308L360.29 312.522L352.293 318.067L343.794 327.239L338.035 325.825L330.47 327.364L325.706 332.7L319.623 330.954L312.425 332.261L308.168 340.415L309.746 348.888L313.163 351.785L291.393 357.147L291.555 360.126L302.855 360.378L280.905 364.072L280.443 366.513L285.508 367.01L262.256 374.741L250.157 374.638L229.615 371.134L207.281 371.366L206.291 373.776L211.268 375.204L201.665 376.338L182.803 381.158L183.479 383.388L188.53 383.102L172.901 393.339L160.878 407.486L161.928 408.206L157.277 423.99L160.722 430.546L162.954 427.775L166.672 425.25L168.355 431.48L178.724 442.897L199.594 450.265L239.338 455.69L284.215 450.737L339.957 429.629L367.723 407.972L364.768 419.514L366.995 420.932L380.905 401.461L389.13 384.489L391.168 384.895L397.201 363.881L398.308 369.826L399.952 369.519L401.177 357.122L408.143 347.45L408.381 340.993L405.254 338.958L411.477 330.21L410.919 315.266L409.248 311.913L407.494 305.304L400.591 302.663Z" fill="#EAE4E8"/>
<path d="M371.241 388.212L362.633 396.096L352.16 403.803L362.659 413.102L379.284 420.868L396.206 425.308L401.359 424.872L404.729 421.889L408.255 420.447L408.039 417.915L410.955 416.673L411.678 413.529L408.875 411.826L405.957 413.023L405.722 411.759L402.181 412.418L399.381 414.248L388.33 410.417L378.663 399.261L371.241 388.212Z" fill="#EAE4E8"/>
<path d="M343.726 417.543L337.02 420.885L331.517 422.956L336.366 437.757L345.568 447.82L354.827 449.761L359.405 450.406L364.73 448.833L364.236 446.177L363.051 446.136L363.954 444.659L362.78 441.868L360.409 441.786L358.823 439.595L353 439.24L346.888 429.255L343.726 417.543Z" fill="#EAE4E8"/>
<path d="M207.786 428.195L206.502 443.09L206.824 456.77L210.126 470.288L218.166 480.438L226.808 483.278L229.767 480.895L228.987 478.816L232.44 479.089L232.587 475.659L229.942 473.404L229.692 471.356L227.077 470.665L224.042 471.231L222.865 464.907L224.537 454.912L230.604 444.623L232.537 433.925L207.786 428.195Z" fill="#EAE4E8"/>
<path d="M170.802 427.753L164.912 436.177L157.447 445.288L156.872 456.256L160.841 467.032L167.198 470.952L168.969 470.623L168.286 466.955L172.542 469.434L173.824 467.887L171.956 464.178L172.78 462.978L171.273 460.51L168.091 458.878L172.299 449.851L182.828 441.74L170.802 427.753Z" fill="#EAE4E8"/>
</svg>
