<svg width="60" height="60" viewBox="0 0 60 60" fill="none" xmlns="http://www.w3.org/2000/svg">
<path d="M6.89979 44.3996C4.2908 40.2234 2.78262 35.2882 2.78262 30.0001C2.78262 14.9684 14.9683 2.78271 30 2.78271C45.0317 2.78271 57.2174 14.9684 57.2174 30.0001C57.2174 45.0318 45.0317 57.2175 30 57.2175C25.1527 57.2175 20.6014 55.9497 16.659 53.7292" stroke="#00E190" stroke-width="5" stroke-miterlimit="10"/>
<path d="M12.2435 35.4818L30 30L24.5171 47.7565" stroke="#00E190" stroke-width="5" stroke-miterlimit="10"/>
<path d="M30 30L10.761 49.239" stroke="#00E190" stroke-width="5" stroke-miterlimit="10"/>
<path d="M21.1201 26.2946C22.5715 22.8208 26.0008 20.3799 30 20.3799C35.3126 20.3799 39.6201 24.6863 39.6201 30C39.6201 33.9847 37.197 37.4028 33.7443 38.8632" stroke="#00E190" stroke-width="3.2" stroke-miterlimit="10"/>
<path d="M12.2435 30.0001C12.2435 20.193 20.1929 12.2437 30 12.2437C39.8071 12.2437 47.7565 20.1942 47.7565 30.0001C47.7565 39.8061 39.806 47.7566 30 47.7566" stroke="#00E190" stroke-width="3.2" stroke-miterlimit="10"/>
</svg>
