<svg width="527" height="543" viewBox="0 0 527 543" fill="none" xmlns="http://www.w3.org/2000/svg">
<path d="M113.875 347.597L314.179 464.593L442.383 281.908L357.752 33.5581L113.328 135.784L113.875 347.597Z" stroke="#737479"/>
<path d="M444.074 289.743C440.088 290.868 435.944 288.548 434.819 284.562C433.694 280.576 436.014 276.432 440 275.307C443.987 274.182 448.13 276.502 449.255 280.488C450.38 284.475 448.061 288.618 444.074 289.743Z" fill="#737479"/>
<circle cx="356.716" cy="35.4088" r="7.5" transform="rotate(74.2411 356.716 35.4088)" fill="#737479"/>
<circle cx="113.945" cy="136.129" r="7.5" transform="rotate(74.2411 113.945 136.129)" fill="#737479"/>
<circle cx="114.221" cy="346.979" r="7.5" transform="rotate(74.2411 114.221 346.979)" fill="#737479"/>
<circle cx="313.834" cy="465.21" r="7.5" transform="rotate(74.2411 313.834 465.21)" fill="#737479"/>
<path d="M271 539L427 470L452 176L123 89L48 420L271 539Z" stroke="#737479"/>
<path d="M457 176C457 178.761 454.761 181 452 181C449.239 181 447 178.761 447 176C447 173.239 449.239 171 452 171C454.761 171 457 173.239 457 176Z" fill="#737479"/>
<circle cx="48" cy="419" r="5" fill="#737479"/>
<circle cx="124" cy="88" r="5" fill="#737479"/>
<circle cx="269" cy="538" r="5" fill="#737479"/>
<circle cx="427" cy="468" r="5" fill="#737479"/>
<path d="M202 49L49 258L171 473L468 419L474 136L202 49Z" stroke="#EAE4E8" stroke-width="2"/>
</svg>
