<svg width="53" height="39" viewBox="0 0 53 39" fill="none" xmlns="http://www.w3.org/2000/svg">
<path d="M8.50201 22.7634V17.6084H44.195V24.2914" stroke="#EAE4E8" stroke-width="2.5" stroke-miterlimit="10" stroke-linecap="round" stroke-linejoin="round"/>
<path d="M27.321 12.5713V22.6443" stroke="#EAE4E8" stroke-width="2.5" stroke-miterlimit="10" stroke-linecap="round" stroke-linejoin="round"/>
<path d="M31.6066 11.571V3L23.0356 3V11.571L31.6066 11.571Z" stroke="#EAE4E8" stroke-width="5" stroke-miterlimit="10" stroke-linecap="round" stroke-linejoin="round"/>
<path d="M33.3811 29.7051L27.3205 23.6445L21.2599 29.7051L27.3205 35.7656L33.3811 29.7051Z" stroke="#00E190" stroke-width="5" stroke-miterlimit="10" stroke-linecap="round" stroke-linejoin="round"/>
<path d="M8.502 35.7672C11.8168 35.7672 14.504 33.08 14.504 29.7652C14.504 26.4504 11.8168 23.7632 8.502 23.7632C5.18719 23.7632 2.5 26.4504 2.5 29.7652C2.5 33.08 5.18719 35.7672 8.502 35.7672Z" stroke="#00E190" stroke-width="5" stroke-miterlimit="10" stroke-linecap="round" stroke-linejoin="round"/>
<path d="M44.195 35.766H38.147L41.171 30.529L44.195 25.291L47.218 30.529L50.242 35.766H44.195Z" stroke="#00E190" stroke-width="5" stroke-miterlimit="10" stroke-linecap="round" stroke-linejoin="round"/>
</svg>
