<svg width="105" height="105" viewBox="0 0 105 105" fill="none" xmlns="http://www.w3.org/2000/svg">
<circle cx="52.5" cy="52.5" r="52.5" fill="white"/>
<path d="M68.688 84.7269H40.501C38.827 84.7269 37.471 83.3699 37.471 81.6969V76.3879C37.471 74.7139 38.828 73.3579 40.501 73.3579H68.688C70.362 73.3579 71.718 74.7149 71.718 76.3879V81.6969C71.718 83.3699 70.362 84.7269 68.688 84.7269Z" stroke="#00E190" stroke-width="1.6" stroke-miterlimit="10"/>
<path d="M55.595 59.759V54.22C55.595 51.464 57.829 49.23 60.585 49.23H68.756" stroke="#00E190" stroke-width="2.3" stroke-miterlimit="10"/>
<path d="M73.232 50.894H89.265C90.642 50.894 91.759 52.011 91.759 53.388V59.404C91.759 60.781 90.642 61.898 89.265 61.898H64.286" stroke="#00E190" stroke-width="1.6" stroke-miterlimit="10"/>
<path d="M63.91 29.2881H82.17C83.547 29.2881 84.664 30.4051 84.664 31.7821V37.7981C84.664 39.1751 83.547 40.2921 82.17 40.2921H72.752" stroke="#00E190" stroke-width="1.6" stroke-miterlimit="10"/>
<path d="M70.001 41.0399H62.626C59.87 41.0399 57.636 38.8059 57.636 36.0499V25.8779" stroke="#00E190" stroke-width="2.3" stroke-miterlimit="10"/>
<path d="M37.337 50.8941H16.644C15.267 50.8941 14.15 49.7771 14.15 48.4001V42.3841C14.15 41.0071 15.267 39.8901 16.644 39.8901H35.417" stroke="#00E190" stroke-width="1.6" stroke-miterlimit="10"/>
<path d="M39.394 39.0938H40.115C42.871 39.0938 45.105 41.3277 45.105 44.0837V55.6718C45.105 56.5178 44.894 57.3148 44.523 58.0138" stroke="#00E190" stroke-width="2.3" stroke-miterlimit="10"/>
<path d="M52.639 60.0139C62.2665 60.0139 70.071 52.2093 70.071 42.5819C70.071 32.9545 62.2665 25.1499 52.639 25.1499C43.0116 25.1499 35.207 32.9545 35.207 42.5819C35.207 52.2093 43.0116 60.0139 52.639 60.0139Z" stroke="#737479" stroke-width="2.3" stroke-miterlimit="10"/>
<path d="M64.965 30.2559L68.731 34.0219C75.539 40.8299 75.539 51.8669 68.731 58.6739C61.923 65.4809 50.886 65.4819 44.079 58.6739L40.313 54.9079" stroke="#737479" stroke-width="2.3" stroke-miterlimit="10"/>
<path d="M40.313 54.9077L37.337 57.8837" stroke="#737479" stroke-width="2.3" stroke-miterlimit="10"/>
<path d="M19.502 77.46L17.771 75.729C17.022 74.98 17.058 73.755 17.85 73.052L36.202 56.75L38.603 59.151L22.171 77.39C21.465 78.173 20.248 78.205 19.502 77.46Z" stroke="#737479" stroke-width="2.3" stroke-miterlimit="10"/>
<path d="M34.691 55.2388L40.115 60.6618" stroke="#737479" stroke-width="2.3" stroke-miterlimit="10"/>
<path d="M38.163 45.6C38.147 41.118 39.849 36.631 43.269 33.211C46.673 29.807 51.134 28.105 55.595 28.105" stroke="#737479" stroke-width="1.6" stroke-miterlimit="10"/>
</svg>
