<svg width="67" height="67" viewBox="0 0 67 67" fill="none" xmlns="http://www.w3.org/2000/svg">
<path d="M27.9545 45.3179H35.3002C37.7339 45.3179 39.7069 43.3449 39.7069 40.9112V35.9189C39.7069 34.2039 41.0968 32.814 42.8118 32.814H45.3192C45.3192 32.814 45.3192 36.677 45.3192 39.3555C45.3192 40.7414 46.4432 41.8642 47.8292 41.8642H55.2565C57.0899 41.8642 58.5773 40.3782 58.5773 38.5434V37.3628C58.5773 35.9281 59.7395 34.7659 61.1741 34.7659H61.4031C62.8378 34.7659 64 35.9281 64 37.3628V54.1548C64 56.5951 62.0217 58.5746 59.5802 58.5746H28.7653" stroke="#00E190" stroke-width="5" stroke-miterlimit="10" stroke-linejoin="round"/>
<path d="M64 47.6016C64 50.0418 62.0218 52.0214 59.5802 52.0214" stroke="#00E190" stroke-width="3.2" stroke-miterlimit="10" stroke-linecap="round" stroke-linejoin="round"/>
<path d="M64 41.2764C64 43.7166 62.0218 45.6962 59.5802 45.6962" stroke="#00E190" stroke-width="3.2" stroke-miterlimit="10" stroke-linecap="round" stroke-linejoin="round"/>
<path d="M45.3178 39.3555V32.0098C45.3178 29.5762 43.3449 27.6032 40.9112 27.6032H35.9189C34.2039 27.6032 32.8139 26.2133 32.8139 24.4983V21.9909C32.8139 21.9909 36.677 21.9909 39.3555 21.9909C40.7414 21.9909 41.8641 20.8669 41.8641 19.4809V12.0536C41.8641 10.2201 40.3781 8.7328 38.5434 8.7328H37.3627C35.9281 8.7328 34.7659 7.5706 34.7659 6.13594V5.90692C34.7659 4.47226 35.9281 3.31006 37.3627 3.31006H54.1548C56.5951 3.31006 58.5746 5.28831 58.5746 7.72986V38.5447" stroke="#00E190" stroke-width="5" stroke-miterlimit="10" stroke-linejoin="round"/>
<path d="M47.6015 3.31006C50.0417 3.31006 52.0213 5.28831 52.0213 7.72986" stroke="#00E190" stroke-width="3.2" stroke-miterlimit="10" stroke-linecap="round" stroke-linejoin="round"/>
<path d="M41.2758 3.31006C43.716 3.31006 45.6956 5.28831 45.6956 7.72986" stroke="#00E190" stroke-width="3.2" stroke-miterlimit="10" stroke-linecap="round" stroke-linejoin="round"/>
<path d="M39.3555 21.991H32.0097C29.5761 21.991 27.6031 23.964 27.6031 26.3976V31.39C27.6031 33.105 26.2132 34.4949 24.4982 34.4949H21.9908C21.9908 34.4949 21.9908 30.6319 21.9908 27.9534C21.9908 26.5674 20.8668 25.4447 19.4808 25.4447H12.0535C10.22 25.4447 8.73274 26.9307 8.73274 28.7655V29.9461C8.73274 31.3808 7.57054 32.543 6.13588 32.543H5.90686C4.4722 32.543 3.31 31.3808 3.31 29.9461V13.1527C3.31 10.7125 5.28825 8.73291 7.7298 8.73291H37.3654" stroke="#00E190" stroke-width="5" stroke-miterlimit="10" stroke-linejoin="round"/>
<path d="M3.31 19.7074C3.31 17.2672 5.28825 15.2876 7.7298 15.2876" stroke="#00E190" stroke-width="3.2" stroke-miterlimit="10" stroke-linecap="round" stroke-linejoin="round"/>
<path d="M3.31 26.0345C3.31 23.5943 5.28825 21.6147 7.7298 21.6147" stroke="#00E190" stroke-width="3.2" stroke-miterlimit="10" stroke-linecap="round" stroke-linejoin="round"/>
<path d="M21.9908 27.9546V35.3003C21.9908 37.734 23.9638 39.7069 26.3975 39.7069H31.3898C33.1048 39.7069 34.4947 41.0969 34.4947 42.8119V45.3192C34.4947 45.3192 30.6317 45.3192 27.9532 45.3192C26.5673 45.3192 25.4445 46.4433 25.4445 47.8292V55.2565C25.4445 57.09 26.9305 58.5773 28.7653 58.5773H29.9459C31.3806 58.5773 32.5428 59.7395 32.5428 61.1742V61.4032C32.5428 62.8378 31.3806 64.0001 29.9459 64.0001H13.1525C10.7123 64.0001 8.73274 62.0218 8.73274 59.5803V28.7654" stroke="#00E190" stroke-width="5" stroke-miterlimit="10" stroke-linejoin="round"/>
<path d="M19.7072 63.9999C17.267 63.9999 15.2874 62.0216 15.2874 59.5801" stroke="#00E190" stroke-width="3.2" stroke-miterlimit="10" stroke-linecap="round" stroke-linejoin="round"/>
<path d="M26.0342 63.9999C23.594 63.9999 21.6144 62.0216 21.6144 59.5801" stroke="#00E190" stroke-width="3.2" stroke-miterlimit="10" stroke-linecap="round" stroke-linejoin="round"/>
</svg>
