<svg width="105" height="105" viewBox="0 0 105 105" fill="none" xmlns="http://www.w3.org/2000/svg">
<circle cx="52.5" cy="52.5" r="52.5" fill="#00E190"/>
<path d="M72.0431 60.4751C75.9605 56.0684 78.3425 50.2671 78.3425 43.9209H84.7941V33.3853H22V43.9209H28.4516C28.4516 50.2671 30.8336 56.0665 34.75 60.4732" stroke="#009865" stroke-width="2.3" stroke-miterlimit="10" stroke-linecap="round" stroke-linejoin="round"/>
<path d="M38.3561 63.8101C42.5406 66.9822 47.7529 68.8662 53.3971 68.8662C59.0413 68.8662 64.2535 66.9822 68.4381 63.8101" stroke="#009865" stroke-width="2.3" stroke-miterlimit="10" stroke-linecap="round" stroke-linejoin="round"/>
<path d="M63.1004 54.5654C60.5383 56.9034 57.1315 58.3314 53.3971 58.3314C49.6627 58.3314 46.2559 56.9034 43.6938 54.5654" stroke="#009865" stroke-width="2.3" stroke-miterlimit="10" stroke-linecap="round" stroke-linejoin="round"/>
<path d="M62.4844 43.9214H67.8068C67.8068 46.2651 67.2446 48.4795 66.2476 50.4372" stroke="#009865" stroke-width="2.3" stroke-miterlimit="10" stroke-linecap="round" stroke-linejoin="round"/>
<path d="M49.8389 43.9214H56.9552" stroke="#009865" stroke-width="2.3" stroke-miterlimit="10" stroke-linecap="round" stroke-linejoin="round"/>
<path d="M40.5465 50.4372C39.5495 48.4795 38.9872 46.2651 38.9872 43.9214H44.3087" stroke="#009865" stroke-width="2.3" stroke-miterlimit="10" stroke-linecap="round" stroke-linejoin="round"/>
<path d="M28.4517 37.5061V33.3857" stroke="#009865" stroke-width="1.6" stroke-miterlimit="10" stroke-linejoin="round"/>
<path d="M36.7671 37.5061V33.3857" stroke="#009865" stroke-width="1.6" stroke-miterlimit="10" stroke-linejoin="round"/>
<path d="M45.0826 37.5061V33.3857" stroke="#009865" stroke-width="1.6" stroke-miterlimit="10" stroke-linejoin="round"/>
<path d="M61.7125 37.5061V33.3857" stroke="#009865" stroke-width="1.6" stroke-miterlimit="10" stroke-linejoin="round"/>
<path d="M70.028 37.5061V33.3857" stroke="#009865" stroke-width="1.6" stroke-miterlimit="10" stroke-linejoin="round"/>
<path d="M78.3425 37.5061V33.3857" stroke="#009865" stroke-width="1.6" stroke-miterlimit="10" stroke-linejoin="round"/>
<path d="M53.3971 40.7587C54.5946 40.7587 55.5655 39.7879 55.5655 38.5903C55.5655 37.3927 54.5946 36.4219 53.3971 36.4219C52.1995 36.4219 51.2286 37.3927 51.2286 38.5903C51.2286 39.7879 52.1995 40.7587 53.3971 40.7587Z" stroke="#EAE4E8" stroke-width="1.6" stroke-miterlimit="10" stroke-linecap="round" stroke-linejoin="round"/>
<path d="M50.4432 42.8759C51.2823 43.4554 52.3004 43.7954 53.398 43.7954C54.4956 43.7954 55.5118 43.4544 56.3508 42.874L75.9959 76.9021C79.4698 77.8493 82.2933 79.9555 84.0384 82.9993L84.7941 82.5626L57.9044 35.9885L57.9005 35.9904C57.0002 34.435 55.3231 33.3862 53.397 33.3862C51.4709 33.3862 49.7891 34.4331 48.8888 35.9885L22 82.5635L22.7557 83.0003C24.5008 79.9564 27.3243 77.8503 30.7982 76.903L50.4432 42.8759Z" stroke="#EAE4E8" stroke-width="2.3" stroke-miterlimit="10" stroke-linecap="round" stroke-linejoin="round"/>
<path d="M50.4442 42.8738C49.0851 41.9352 48.1924 40.3673 48.1924 38.5906C48.1924 37.6424 48.4501 36.7555 48.8935 35.9902" stroke="#EAE4E8" stroke-width="1.6" stroke-miterlimit="10" stroke-linecap="round" stroke-linejoin="round"/>
<path d="M53.397 29.7588V33.3859" stroke="#EAE4E8" stroke-width="2.3" stroke-miterlimit="10" stroke-linejoin="round"/>
<path d="M55.0732 20H51.7209V29.7588H55.0732V20Z" stroke="#EAE4E8" stroke-width="2.3" stroke-miterlimit="10" stroke-linejoin="round"/>
<path d="M55.0731 36.9146L51.9891 39.9986" stroke="#EAE4E8" stroke-width="1.6" stroke-miterlimit="10" stroke-linejoin="round"/>
</svg>
