<svg width="105" height="105" viewBox="0 0 105 105" fill="none" xmlns="http://www.w3.org/2000/svg">
<circle cx="52.5" cy="52.5" r="52.5" fill="#00E190"/>
<path d="M66.2896 51.4458V58.6058" stroke="#EAE4E8" stroke-width="1.6" stroke-miterlimit="10"/>
<path d="M66.2896 22.7827V30.9523" stroke="#EAE4E8" stroke-width="1.6" stroke-miterlimit="10"/>
<path d="M74.8675 38.0393C75.0219 38.0924 75.1744 38.1522 75.3269 38.2169C76.3693 38.6628 77.2467 39.3317 77.9282 40.1454V30.3909C77.2467 29.5782 76.3684 28.9084 75.3269 28.4624C74.2854 28.0165 73.1957 27.8437 72.1378 27.9123C71.08 27.9808 69.9902 27.8071 68.9488 27.3621C67.9064 26.9162 66.972 26.2473 66.2906 25.4336V30.8639" stroke="#EAE4E8" stroke-width="1.6" stroke-miterlimit="10" stroke-linecap="round" stroke-linejoin="round"/>
<path d="M77.9282 42.8287V32.7896C78.6096 33.6023 79.4879 34.2721 80.5294 34.718C81.5709 35.164 82.6606 35.3367 83.7185 35.2682V45.3894" stroke="#EAE4E8" stroke-width="1.6" stroke-miterlimit="10" stroke-linecap="round" stroke-linejoin="round"/>
<path d="M58.7899 64.1135V62.544L61.867 61.436V60.2053L65.0059 58.606H66.2896H67.5743L70.7122 60.2053V61.436L73.7893 62.544V64.1135H58.7899Z" stroke="#EAE4E8" stroke-width="1.6" stroke-miterlimit="10"/>
<path d="M66.2896 22.9209C67.15 22.9209 67.8475 22.2234 67.8475 21.363C67.8475 20.5027 67.15 19.8052 66.2896 19.8052C65.4292 19.8052 64.7318 20.5027 64.7318 21.363C64.7318 22.2234 65.4292 22.9209 66.2896 22.9209Z" stroke="#EAE4E8" stroke-width="1.6" stroke-miterlimit="10"/>
<path d="M50.3076 20.2876V78.2206" stroke="#EAE4E8" stroke-width="2.3" stroke-miterlimit="10"/>
<path d="M50.3076 45.915C51.7534 47.6388 53.6144 49.0587 55.8247 50.0036C58.0331 50.9486 60.3438 51.3153 62.587 51.1715C64.8311 51.0277 67.1409 51.3945 69.3493 52.3394C71.5586 53.2853 73.4205 54.7042 74.8664 56.4281V35.7436C73.4205 34.0197 71.5596 32.5999 69.3493 31.6549C67.1409 30.71 64.8301 30.3432 62.587 30.487C60.3429 30.6308 58.0331 30.2641 55.8247 29.3191C53.6153 28.3732 51.7534 26.9543 50.3076 25.2305V45.915Z" stroke="#009865" stroke-width="2.3" stroke-miterlimit="10" stroke-linecap="round" stroke-linejoin="round"/>
<path d="M87.1449 66.7702C84.9008 66.914 82.591 66.5472 80.3826 65.6023C78.1733 64.6563 76.3114 63.2375 74.8655 61.5136V40.8291C76.3114 42.553 78.1723 43.9728 80.3826 44.9177C82.591 45.8627 84.9018 46.2295 87.1449 46.0857V66.7702Z" stroke="#009865" stroke-width="2.3" stroke-miterlimit="10" stroke-linecap="round" stroke-linejoin="round"/>
<path d="M50.3076 81.062H42.8909" stroke="#EAE4E8" stroke-width="1.6" stroke-miterlimit="10"/>
<path d="M36.9905 88.0002V85.2137L42.4546 83.2475V81.0623L48.0268 78.2207H50.3076H52.5874L58.1606 81.0623V83.2475L63.6237 85.2137V88.0002H36.9905Z" stroke="#EAE4E8" stroke-width="2.3" stroke-miterlimit="10"/>
<path d="M36.9905 85.2134H50.3076" stroke="#EAE4E8" stroke-width="1.6" stroke-miterlimit="10"/>
<path d="M50.3076 20.5307C51.8348 20.5307 53.0729 19.2926 53.0729 17.7653C53.0729 16.2381 51.8348 15 50.3076 15C48.7803 15 47.5422 16.2381 47.5422 17.7653C47.5422 19.2926 48.7803 20.5307 50.3076 20.5307Z" stroke="#EAE4E8" stroke-width="1.6" stroke-miterlimit="10"/>
<path d="M25.9051 33.0439V69.8485" stroke="#EAE4E8" stroke-width="1.6" stroke-miterlimit="10"/>
<path d="M25.9051 46.7286C26.7149 47.6938 27.7564 48.4881 28.9938 49.018C30.2302 49.547 31.5236 49.7526 32.7803 49.6715C34.037 49.5904 35.3304 49.796 36.5668 50.3249C37.8042 50.8548 38.8467 51.6492 39.6555 52.6144V41.0328C38.8457 40.0676 37.8042 39.2733 36.5668 38.7434C35.3304 38.2144 34.037 38.0088 32.7803 38.0899C31.5236 38.171 30.2302 37.9654 28.9938 37.4365C27.7564 36.9066 26.7139 36.1122 25.9051 35.147V46.7286Z" stroke="#EAE4E8" stroke-width="1.6" stroke-miterlimit="10" stroke-linecap="round" stroke-linejoin="round"/>
<path d="M46.5316 58.4054C45.2749 58.4864 43.9816 58.2809 42.7451 57.7519C41.5077 57.222 40.4653 56.4276 39.6564 55.4624V43.8799C40.4662 44.8451 41.5077 45.6395 42.7451 46.1694C43.9816 46.6983 45.2749 46.9039 46.5316 46.8228V58.4054Z" stroke="#EAE4E8" stroke-width="1.6" stroke-miterlimit="10" stroke-linecap="round" stroke-linejoin="round"/>
<path d="M17 76.388V74.5251L20.6533 73.2095V71.7482L24.38 69.8486H25.9051H27.4301L31.1568 71.7482V73.2095L34.8101 74.5251V76.388H17Z" stroke="#EAE4E8" stroke-width="1.6" stroke-miterlimit="10"/>
<path d="M25.9051 33.207C26.9264 33.207 27.7544 32.379 27.7544 31.3576C27.7544 30.3363 26.9264 29.5083 25.9051 29.5083C24.8837 29.5083 24.0557 30.3363 24.0557 31.3576C24.0557 32.379 24.8837 33.207 25.9051 33.207Z" stroke="#EAE4E8" stroke-width="1.6" stroke-miterlimit="10"/>
</svg>
