<svg width="72" height="46" viewBox="0 0 72 46" fill="none" xmlns="http://www.w3.org/2000/svg">
<path d="M20.9307 25.1756C16.8727 25.1756 13.5828 21.8857 13.5828 17.8277V9.84784C13.5828 5.78992 16.8727 2.5 20.9307 2.5C24.9886 2.5 28.2785 5.78992 28.2785 9.84784V17.8277C28.2785 21.8857 24.9886 25.1756 20.9307 25.1756Z" stroke="#00E190" stroke-width="5" stroke-miterlimit="10"/>
<path d="M25.1516 23.8359V28.579C25.1516 30.9101 23.2617 32.7999 20.9307 32.7999C18.5996 32.7999 16.7098 30.9101 16.7098 28.579V23.8359" stroke="#00E190" stroke-width="3.2" stroke-miterlimit="10" stroke-linejoin="round"/>
<path d="M15.5591 4.84277C18.0693 9.72183 22.7521 13.2999 28.3289 14.2993" stroke="#00E190" stroke-width="3.2" stroke-miterlimit="10"/>
<path d="M69 45.5552C69 35.6521 60.9724 27.6245 51.0693 27.6245C41.1663 27.6245 33.1378 35.6521 33.1378 45.5552" stroke="#00E190" stroke-width="5" stroke-miterlimit="10"/>
<path d="M20.9307 11.1245V18.0897" stroke="#00E190" stroke-width="3.2" stroke-miterlimit="10" stroke-linecap="round"/>
<path d="M36.0036 35.8392C33.5447 32.0325 29.684 29.2171 25.1516 28.124" stroke="#00E190" stroke-width="5" stroke-miterlimit="10"/>
<path d="M16.7098 28.124C8.84334 30.022 3 37.106 3 45.555" stroke="#00E190" stroke-width="5" stroke-miterlimit="10"/>
<path d="M19.4325 32.523L15.0081 36.3973L14.1068 28.3184" stroke="#00E190" stroke-width="3.2" stroke-miterlimit="10" stroke-linejoin="round"/>
<path d="M22.4298 32.523L26.8541 36.3973L27.7545 28.3184" stroke="#00E190" stroke-width="3.2" stroke-miterlimit="10" stroke-linejoin="round"/>
<path d="M51.0693 25.1756C47.0114 25.1756 43.7215 21.8857 43.7215 17.8277V9.84784C43.7215 5.78992 47.0114 2.5 51.0693 2.5C55.1273 2.5 58.4172 5.78992 58.4172 9.84784V17.8277C58.4172 21.8857 55.1273 25.1756 51.0693 25.1756Z" stroke="#00E190" stroke-width="5" stroke-miterlimit="10"/>
<path d="M46.8484 28.5805V23.8374" stroke="#00E190" stroke-width="3.2" stroke-miterlimit="10" stroke-linejoin="round"/>
<path d="M55.2902 23.8359V28.579" stroke="#00E190" stroke-width="3.2" stroke-miterlimit="10" stroke-linejoin="round"/>
<path d="M43.3722 17.4873C45.7383 18.4876 48.3385 19.0413 51.0693 19.0413C53.6408 19.0413 56.0969 18.5506 58.3505 17.6575" stroke="#00E190" stroke-width="3.2" stroke-miterlimit="10"/>
</svg>
