<svg width="105" height="105" viewBox="0 0 105 105" fill="none" xmlns="http://www.w3.org/2000/svg">
<circle cx="52.5" cy="52.5" r="52.5" fill="#00E190"/>
<path d="M25.3194 33.4175L39.0868 43.136" stroke="#009865" stroke-width="1.6" stroke-miterlimit="10" stroke-linecap="round" stroke-linejoin="round"/>
<path d="M83.4556 38.7274L77.7119 41.3794" stroke="#009865" stroke-width="1.6" stroke-miterlimit="10" stroke-linecap="round" stroke-linejoin="round"/>
<path d="M22.2537 66.9824L29.8053 63.4963" stroke="#009865" stroke-width="1.6" stroke-miterlimit="10" stroke-linecap="round" stroke-linejoin="round"/>
<path d="M49.7892 86.4197L50.4074 79.65" stroke="#009865" stroke-width="1.6" stroke-miterlimit="10" stroke-linecap="round" stroke-linejoin="round"/>
<path d="M58.0127 76.142C60.6808 72.3624 59.7797 67.1355 56 64.4674C52.2204 61.7993 46.9934 62.7004 44.3254 66.4801C41.6573 70.2597 42.5584 75.4866 46.3381 78.1547C50.1177 80.8228 55.3446 79.9217 58.0127 76.142Z" stroke="#009865" stroke-width="2.3" stroke-miterlimit="10" stroke-linecap="round" stroke-linejoin="round"/>
<path d="M76.7547 51.8562C80.1054 47.1096 78.9737 40.5455 74.2272 37.1949C69.4806 33.8443 62.9165 34.9759 59.5659 39.7225C56.2153 44.469 57.3469 51.0331 62.0935 54.3837C66.8401 57.7344 73.4041 56.6027 76.7547 51.8562Z" stroke="#009865" stroke-width="2.3" stroke-miterlimit="10" stroke-linecap="round" stroke-linejoin="round"/>
<path d="M49.0758 50.1875C51.0228 47.4293 50.3652 43.615 47.6071 41.6681C44.8489 39.7211 41.0346 40.3786 39.0877 43.1368C37.1407 45.8949 37.7982 49.7092 40.5564 51.6562C43.3145 53.6032 47.1288 52.9456 49.0758 50.1875Z" stroke="#009865" stroke-width="2.3" stroke-miterlimit="10" stroke-linecap="round" stroke-linejoin="round"/>
<path d="M35.3701 64.0056C36.3979 62.5496 36.0508 60.5361 34.5948 59.5083C33.1388 58.4805 31.1252 58.8276 30.0974 60.2836C29.0696 61.7396 29.4168 63.7531 30.8728 64.7809C32.3288 65.8087 34.3423 65.4616 35.3701 64.0056Z" stroke="#009865" stroke-width="2.3" stroke-miterlimit="10" stroke-linecap="round" stroke-linejoin="round"/>
<path d="M80.3906 72.2926C91.1257 57.0851 87.5 36.0545 72.2925 25.3194C57.085 14.5844 36.0545 18.21 25.3194 33.4175C14.5844 48.625 18.21 69.6556 33.4175 80.3906C48.625 91.1257 69.6556 87.5001 80.3906 72.2926Z" stroke="#EAE4E8" stroke-width="2.3" stroke-miterlimit="10" stroke-linejoin="round"/>
</svg>
