<svg width="174" height="58" viewBox="0 0 174 58" fill="none" xmlns="http://www.w3.org/2000/svg">
<path d="M155.889 56.7515C157.078 56.7515 157.92 56.317 158.771 55.6264L158.249 54.8992C157.568 55.4069 156.982 55.727 156.205 55.727C154.988 55.727 154.385 54.7117 154.718 53.4677C155.061 52.2055 156.209 51.2085 157.426 51.2085C158.153 51.2085 158.61 51.524 158.99 51.9997L159.932 51.1765C159.479 50.5956 158.885 50.1886 157.714 50.1886C155.793 50.1886 154.042 51.6658 153.552 53.4723C153.049 55.3063 154.037 56.7515 155.889 56.7515ZM146.71 56.6417H151.462L151.732 55.6447H148.096L148.558 53.9388H151.741L152.011 52.9418H148.828L149.276 51.2908H152.866L153.136 50.2938H148.43L146.71 56.6417ZM139.635 56.6417H140.751L141.474 53.9662H144.501L143.779 56.6417H144.895L146.61 50.2938H145.494L144.78 52.9327H141.753L142.466 50.2938H141.35L139.635 56.6417ZM137.5 50.184C136.375 50.184 135.556 50.5636 134.792 51.1445L135.195 51.8716C135.798 51.4097 136.411 51.1627 137.166 51.1627C137.875 51.1627 138.268 51.5149 138.122 52.05C137.962 52.6491 137.372 52.9738 136.567 52.9738H135.858L135.606 53.8976H136.324C137.152 53.8976 137.701 54.1721 137.527 54.8215C137.367 55.4206 136.699 55.7727 136.027 55.7727C135.167 55.7727 134.568 55.4755 134.143 54.9312L133.329 55.7041C133.85 56.3856 134.563 56.7469 135.794 56.7469C137.207 56.7469 138.341 55.9374 138.629 54.8855C138.853 54.0577 138.446 53.5775 137.797 53.3626C138.423 53.1247 139.055 52.6994 139.274 51.8853C139.539 50.8975 138.817 50.184 137.5 50.184ZM126.418 56.6417H127.47L131.925 52.0134L130.672 56.6417H131.769L133.484 50.2938H132.441L127.978 54.9267L129.231 50.2938H128.133L126.418 56.6417ZM121.177 55.6447L121.703 53.7056H123.372C124.2 53.7056 124.575 54.0211 124.406 54.6385C124.196 55.4206 123.606 55.6447 122.645 55.6447H121.177ZM119.801 56.6417H122.622C124.072 56.6417 125.165 55.9511 125.513 54.6843C125.842 53.4586 125.124 52.7634 123.729 52.7634H121.959L122.352 51.3045H125.979L126.254 50.2984H121.516L119.801 56.6417ZM112.579 56.6417H113.704L115.14 51.3274H117.153L117.431 50.2938H112.277L111.998 51.3274H114.011L112.579 56.6417ZM103.844 56.6417H104.896L109.35 52.0134L108.097 56.6417H109.195L110.91 50.2938H109.867L105.403 54.9267L106.657 50.2938H105.559L103.844 56.6417ZM98.0997 55.6447C98.772 54.7666 99.3711 53.4952 99.769 52.0271L99.9656 51.2999H102.207L101.031 55.6447H98.0997ZM95.6575 58H96.6362L97.1118 56.6417H101.585L101.219 58H102.143L102.934 55.6401H102.143L103.588 50.2892H99.1607L98.9183 51.1856C98.3466 53.3077 97.7155 54.5974 96.906 55.6401H96.2886L95.6575 58ZM90.9972 56.7423C91.8249 56.7423 92.5841 56.3353 93.4119 55.2559L97.2307 50.2938H96.0233L93.2839 53.9845L92.3052 50.2938H91.052L92.4012 55.1005C91.9439 55.6172 91.5002 55.791 91.2167 55.791C90.9377 55.791 90.7045 55.7362 90.4895 55.5898L89.8355 56.4222C90.1602 56.6234 90.5078 56.7423 90.9972 56.7423ZM84.6859 55.6447L85.2118 53.7056H86.8811C87.7043 53.7056 88.0839 54.0211 87.9147 54.6385C87.7043 55.4206 87.1143 55.6447 86.1539 55.6447H84.6859ZM83.3093 56.6417H86.1311C87.5808 56.6417 88.6739 55.9511 89.0214 54.6843C89.3507 53.4586 88.6327 52.7634 87.2378 52.7634H85.4679L85.8612 51.3045H89.4879L89.7623 50.2984H85.0289L83.3093 56.6417Z" fill="white"/>
<path d="M127.831 22.7298C125.847 22.7298 124.497 24.8199 124.497 26.6721C124.497 28.314 125.504 29.343 126.985 29.343C128.97 29.343 130.319 27.2529 130.319 25.3733C130.319 23.7634 129.313 22.7298 127.831 22.7298Z" fill="white"/>
<path d="M91.2075 22.7298C89.2227 22.7298 87.8735 24.8199 87.8735 26.6721C87.8735 28.314 88.8797 29.343 90.3615 29.343C92.3463 29.343 93.6955 27.2529 93.6955 25.3733C93.6909 23.7634 92.6893 22.7298 91.2075 22.7298Z" fill="white"/>
<path d="M68.1621 0L64.5491 13.5281H69.7308L71.8666 21.8335L78.4843 13.5281H84.2514L80.085 28.9863C79.5225 30.9894 77.4782 33.1892 73.7966 33.1801L76.6275 22.5469L69.9869 29.7958H69.8817L66.5934 21.2161C66.5431 21.056 66.4837 20.9051 66.4196 20.7587L66.4105 20.7358C65.7839 19.3958 64.4851 18.6184 62.61 18.6184C60.5199 18.6184 58.7729 19.5696 57.4237 21.1063C56.8932 19.6245 55.6493 18.6184 53.6918 18.6184C51.9997 18.6184 50.678 19.5193 49.6993 20.5209L50.1246 18.9339H45.0984L41.2613 33.2441H46.2875L48.3227 25.6797C48.7709 24.0378 49.5941 23.0866 50.9432 23.0866C51.9768 23.0866 52.4753 23.64 52.4753 24.5958C52.4753 24.9114 52.3976 25.3916 52.2878 25.7575L50.2755 33.2441H55.3017L57.3369 25.6797C57.785 24.0378 58.6083 23.0866 59.9574 23.0866C61.0139 23.0866 61.4484 23.64 61.4484 24.5958C61.4484 24.9114 61.3706 25.3916 61.2608 25.7575L59.2943 33.1801L56.1844 44.8286H161.162L173.14 0H68.1621ZM98.8634 13.5236H101.85L100.766 17.571H97.7795L98.8634 13.5236ZM95.3053 13.5236C96.1102 13.5236 96.9197 13.5236 97.7246 13.5236C97.3633 14.8727 97.002 16.2219 96.6407 17.571C95.8358 17.571 95.0263 17.571 94.2214 17.571C94.5827 16.2219 94.944 14.8727 95.3053 13.5236ZM92.2777 13.5236C92.8951 13.5236 93.5171 13.5236 94.1345 13.5236C93.7732 14.8727 93.4119 16.2219 93.0506 17.571C92.4332 17.571 91.8112 17.571 91.1938 17.571C91.5551 16.2219 91.9164 14.8727 92.2777 13.5236ZM89.648 13.5236C90.0779 13.5236 90.5078 13.5236 90.9377 13.5236C90.5764 14.8727 90.2151 16.2219 89.8538 17.571C89.4239 17.571 88.994 17.571 88.5641 17.571C88.9254 16.2219 89.2867 14.8727 89.648 13.5236ZM87.3339 13.5236H88.061L86.9771 17.571H86.25L87.3339 13.5236ZM90.0688 33.5231C85.7057 33.5231 83.0577 30.6419 83.0577 26.8551C83.0577 22.5423 86.6799 18.5498 91.4682 18.5498C95.8587 18.5498 98.5067 21.431 98.5067 25.1903C98.5067 29.5305 94.8846 33.5231 90.0688 33.5231ZM107.663 32.9697C106.762 33.2853 105.733 33.4728 104.699 33.4728C101.79 33.4728 100.359 32.2014 100.359 30.0885C100.359 29.5076 100.432 28.8948 100.624 28.2088L103.569 17.5756H101.877L102.961 13.5281H104.653L105.632 9.90601H110.658L109.68 13.5281H120.903L120.811 13.8712H120.825L119.819 17.5756H114.582H108.596L105.865 27.4176C105.769 27.756 105.733 28.0807 105.733 28.2911C105.733 28.8719 106.076 29.1921 106.871 29.1921C107.425 29.1921 108.033 29.0595 108.774 28.7942L107.663 32.9697ZM115.506 33.1801H110.48L114.317 18.8699H119.343L115.506 33.1801ZM126.693 33.5231C122.33 33.5231 119.682 30.6419 119.682 26.8551C119.682 22.5423 123.304 18.5498 128.092 18.5498C132.483 18.5498 135.131 21.431 135.131 25.1903C135.135 29.5305 131.508 33.5231 126.693 33.5231ZM151.613 25.4053L150.671 28.9634C149.962 31.2867 148.759 33.2578 144.524 33.1847L146.537 25.698C146.642 25.3275 146.697 24.8519 146.697 24.5364C146.697 23.5851 146.143 23.0271 145.11 23.0271C143.706 23.0271 142.887 23.9784 142.439 25.6202L140.404 33.1847H135.373L139.21 18.8745H144.236L143.788 20.5163C144.767 19.4827 146.194 18.5589 147.89 18.5589C150.484 18.5589 152.043 20.2008 152.043 22.8442C152.038 23.6034 151.851 24.5043 151.613 25.4053Z" fill="white"/>
<path d="M17.3149 13.5282H1.09762L0 17.571H5.55669L2.48794 28.9588C1.8751 30.8934 2.77149 33.2441 6.48967 33.2487L10.6881 17.5756H16.2448L17.3149 13.5282Z" fill="white"/>
<path d="M20.53 18.6184C15.2386 18.6184 11.932 23.0088 11.932 27.2438C11.932 31.1083 14.5251 33.5917 18.7556 33.5917C21.2435 33.5917 23.146 32.7182 24.6004 31.4468L22.2725 28.6936C21.1886 29.4894 20.2602 29.8324 19.2312 29.8324C17.5116 29.8324 16.6655 28.9085 16.5603 27.4771H26.0593C26.4023 26.5532 26.6127 25.5196 26.6127 24.5409C26.6127 21.4493 24.7604 18.6184 20.53 18.6184ZM22.0118 24.9114H16.9033C17.5116 23.1918 18.8333 22.3183 20.1825 22.3183C21.5042 22.3183 22.1399 23.1643 22.1399 24.143C22.1444 24.4083 22.0896 24.6736 22.0118 24.9114Z" fill="white"/>
<path d="M42.1943 23.297C42.1943 20.4386 40.1042 18.7464 35.819 18.7464C33.7563 18.751 31.6937 19.094 30.1845 19.6199L30.898 23.2695C31.9041 22.8716 33.4133 22.5561 34.7625 22.5561C36.5095 22.5561 37.223 23.1643 37.223 24.0882C37.223 24.4312 37.1452 24.7239 37.0904 24.9617L37.0355 25.1492C35.8967 24.8062 34.7076 24.5958 33.4133 24.5958C29.6311 24.5958 27.1158 26.4983 27.1158 29.6494C27.1158 32.0322 28.7576 33.5368 31.1083 33.5368C32.7731 33.5368 34.017 32.8508 35.2336 31.712L34.8357 33.2441H39.7887L41.9062 25.3596C42.0891 24.6461 42.1943 23.9601 42.1943 23.297ZM36.3769 27.8475C35.979 29.3018 34.7351 30.4406 33.4408 30.4406C32.5947 30.4406 32.0139 29.9375 32.0139 29.1189C32.0139 27.8246 33.0475 27.0563 34.6344 27.0563C35.3205 27.0563 35.9562 27.1889 36.5141 27.3719L36.3769 27.8475Z" fill="white"/>
</svg>
