<svg width="90" height="15" viewBox="0 0 90 15" fill="none" xmlns="http://www.w3.org/2000/svg">
<path d="M62.5882 10.8836C62.5882 10.7591 62.6105 10.5676 62.668 10.3664L64.2866 4.53991H67.8304H70.9305L71.5243 2.34658H71.5147L71.569 2.14225H64.9252L65.5062 0H62.5307L61.9496 2.14544H60.9471L60.3054 4.53991H61.3079L59.5647 10.8358C59.453 11.2412 59.4083 11.602 59.4083 11.9468C59.4083 13.1983 60.2543 13.9518 61.9752 13.9518C62.585 13.9518 63.1979 13.8432 63.7279 13.6548L64.3856 11.1806C63.9482 11.337 63.5874 11.4168 63.2586 11.4168C62.7925 11.4168 62.5882 11.2284 62.5882 10.8836Z" fill="white"/>
<path d="M60.2927 2.14545H58.5239L57.8822 4.53991H59.6509L60.2927 2.14545Z" fill="white"/>
<path d="M65.4009 13.7794H68.3764L70.6463 5.30933H67.6708L65.4009 13.7794Z" fill="white"/>
<path d="M46.4622 2.14545L42.5449 7.06208L41.2806 2.14545H38.2125L37.3952 5.17524C37.2898 5.16567 37.1781 5.15928 37.0663 5.15928C35.8276 5.15928 34.7964 5.72438 33.9982 6.63108C33.6853 5.75311 32.9478 5.15928 31.7889 5.15928C30.7864 5.15928 30.0043 5.69245 29.4232 6.28628L29.6754 5.34765H26.6999L24.4299 13.8209H27.4055L28.6123 9.34162C28.8773 8.37106 29.3625 7.80596 30.1639 7.80596C30.7737 7.80596 31.0706 8.1348 31.0706 8.6999C31.0706 8.88826 31.0227 9.16921 30.962 9.3895L29.7712 13.8209H32.7467L33.9535 9.34162C34.2185 8.37106 34.7038 7.80596 35.5051 7.80596C36.1309 7.80596 36.3863 8.1348 36.3863 8.6999C36.3863 8.81483 36.3671 8.96489 36.3384 9.11494L35.0805 13.7826H35.1124L35.1029 13.8209H38.088L39.3267 9.2171C39.4672 8.68394 39.5757 8.138 39.5757 7.68145C39.5757 7.32069 39.5246 6.99185 39.4289 6.69812L41.3764 11.7776H41.4402L45.3703 7.4867L43.6942 13.7826C45.8748 13.7857 47.0848 12.4863 47.4168 11.2987L49.8815 2.14545H46.4622ZM39.3139 6.41079L39.3203 6.42356C39.3171 6.42037 39.3171 6.41717 39.3139 6.41079Z" fill="white"/>
<path d="M75.828 5.12097C72.9929 5.12097 70.8475 7.4867 70.8475 10.0376C70.8475 12.2756 72.415 13.9837 74.9979 13.9837C77.8489 13.9837 79.9943 11.618 79.9943 9.05109C79.9943 6.82902 78.4299 5.12097 75.828 5.12097ZM75.1703 11.5094C74.2923 11.5094 73.6985 10.8996 73.6985 9.92906C73.6985 8.83399 74.4966 7.59525 75.6715 7.59525C76.5495 7.59525 77.1433 8.20504 77.1433 9.15964C77.1433 10.2739 76.3452 11.5094 75.1703 11.5094Z" fill="white"/>
<path d="M54.1469 5.12097C51.3118 5.12097 49.1664 7.4867 49.1664 10.0376C49.1664 12.2756 50.7339 13.9837 53.3168 13.9837C56.1678 13.9837 58.3132 11.618 58.3132 9.05109C58.3132 6.82902 56.7457 5.12097 54.1469 5.12097ZM53.4892 11.5094C52.6112 11.5094 52.0174 10.8996 52.0174 9.92906C52.0174 8.83399 52.8155 7.59525 53.9904 7.59525C54.8684 7.59525 55.4622 8.20504 55.4622 9.15964C55.4622 10.2739 54.6641 11.5094 53.4892 11.5094Z" fill="white"/>
<path d="M53.8308 2.14545C53.5754 2.14545 53.32 2.14545 53.0678 2.14545C52.8539 2.9436 52.6399 3.74176 52.426 4.53991C52.6815 4.53991 52.9369 4.53991 53.1891 4.53991C53.403 3.74176 53.6169 2.9436 53.8308 2.14545Z" fill="white"/>
<path d="M57.8503 2.14545C57.3714 2.14545 56.8957 2.14545 56.4168 2.14545C56.2029 2.9436 55.989 3.74176 55.7751 4.53991C56.254 4.53991 56.7297 4.53991 57.2086 4.53991C57.4225 3.74176 57.6364 2.9436 57.8503 2.14545Z" fill="white"/>
<path d="M55.724 2.14545C55.3569 2.14545 54.9929 2.14545 54.6258 2.14545C54.4119 2.9436 54.1979 3.74176 53.984 4.53991C54.3512 4.53991 54.7152 4.53991 55.0823 4.53991C55.2962 3.74176 55.5101 2.9436 55.724 2.14545Z" fill="white"/>
<path d="M52.1259 2.14545H51.6981L51.0564 4.53991H51.4842L52.1259 2.14545Z" fill="white"/>
<path d="M87.5417 5.12097C86.5392 5.12097 85.6932 5.6701 85.1153 6.27989L85.3803 5.30934H82.4048L80.1348 13.7794H83.1103L84.3171 9.30011C84.5821 8.32956 85.0674 7.76446 85.8975 7.76446C86.5073 7.76446 86.8361 8.0933 86.8361 8.6584C86.8361 8.84676 86.8042 9.12771 86.7435 9.348L85.5527 13.7794C88.0589 13.8241 88.7708 12.6556 89.1923 11.2827L89.751 9.1756C89.8915 8.64243 90 8.10926 90 7.65591C90 6.09153 89.0773 5.12097 87.5417 5.12097Z" fill="white"/>
<path d="M24.9791 7.93047C24.9791 6.23838 23.7435 5.2359 21.2054 5.2359C19.9826 5.2359 18.763 5.44023 17.8691 5.75311L18.2905 7.91451C18.8844 7.67826 19.7783 7.49308 20.5765 7.49308C21.6109 7.49308 22.0323 7.85385 22.0323 8.39979C22.0323 8.60412 21.9844 8.77652 21.9525 8.91699L21.9205 9.02554C21.2469 8.82122 20.5413 8.6967 19.7751 8.6967C17.5371 8.6967 16.0493 9.8237 16.0493 11.6882C16.0493 13.0961 17.0199 13.9901 18.415 13.9901C19.4016 13.9901 20.1391 13.5846 20.8574 12.911L20.6211 13.8177H23.5488L24.8003 9.15006C24.9152 8.72863 24.9791 8.32317 24.9791 7.93047ZM21.5342 10.625C21.298 11.4871 20.5637 12.1607 19.7975 12.1607C19.2962 12.1607 18.9514 11.8638 18.9514 11.3785C18.9514 10.6123 19.5612 10.1557 20.503 10.1557C20.9117 10.1557 21.2852 10.2355 21.6141 10.3441L21.5342 10.625Z" fill="white"/>
<path d="M12.1511 5.15927C9.01915 5.15927 7.06207 7.75807 7.06207 10.2643C7.06207 12.5502 8.59772 14.022 11.1007 14.022C12.5725 14.022 13.6995 13.5048 14.5615 12.7545L13.1823 11.1263C12.5406 11.5956 11.9915 11.7999 11.3817 11.7999C10.3632 11.7999 9.862 11.2508 9.80134 10.4047H15.4235C15.6279 9.85562 15.7524 9.24583 15.7524 8.66796C15.7556 6.8354 14.6573 5.15927 12.1511 5.15927ZM13.0291 8.88506H10.0057C10.3664 7.86661 11.1486 7.34941 11.9468 7.34941C12.729 7.34941 13.1057 7.85065 13.1057 8.42852C13.1089 8.58815 13.077 8.74459 13.0291 8.88506Z" fill="white"/>
<path d="M10.2483 2.14545H0.651295L0 4.53991H3.2884L1.4718 11.2795C1.11103 12.4257 1.64101 13.8177 3.84072 13.8177L6.32458 4.53991H9.61298L10.2483 2.14545Z" fill="white"/>
</svg>
