<svg width="105" height="105" viewBox="0 0 105 105" fill="none" xmlns="http://www.w3.org/2000/svg">
<circle cx="52.5" cy="52.5" r="52.5" fill="#00E190"/>
<path d="M52.9376 89.9246C60.5716 89.2503 67.1624 83.6248 68.7175 75.7274L72.8501 54.73C74.7352 45.1521 68.4989 35.8594 58.921 33.9743C49.3431 32.0892 40.0504 38.3256 38.1653 47.9035L34.0321 68.9C32.4776 76.7982 36.445 84.5018 43.2541 88.0187" stroke="#009865" stroke-width="1.6" stroke-miterlimit="10"/>
<path d="M22.559 34.1198C21.0512 39.7059 23.0706 45.8836 28.0677 49.4245L47.4664 63.2921C53.8715 67.8311 62.7438 66.3177 67.2828 59.9126C71.8217 53.5075 70.3084 44.6352 63.9032 40.0962L44.5045 26.2286C39.5342 22.7069 33.0792 22.829 28.3156 26.0526" stroke="#009865" stroke-width="1.6" stroke-miterlimit="10"/>
<path d="M89.2819 50.7573C88.2232 41.2515 80.7658 33.3598 70.8588 32.1413L57.8996 30.5464C46.3161 29.1216 35.7711 37.3555 34.345 48.9387C32.9201 60.5221 41.1541 71.0671 52.7373 72.4933L65.6965 74.0882C75.6027 75.3072 84.7507 69.4605 88.0835 60.4954" stroke="#009865" stroke-width="1.6" stroke-miterlimit="10"/>
<path d="M64.1607 45.7015C60.9372 40.8981 54.4301 39.6174 49.6267 42.8409C44.8233 46.0645 43.5426 52.5716 46.7662 57.375C49.9897 62.1784 56.4968 63.4591 61.3002 60.2355C66.1036 57.012 67.3843 50.5049 64.1607 45.7015Z" stroke="#EAE4E8" stroke-width="2.3" stroke-miterlimit="10" stroke-linejoin="round"/>
<path d="M52.1008 86.9065C50.5641 84.6166 47.462 84.0061 45.1721 85.5428C42.8823 87.0796 42.2717 90.1816 43.8084 92.4715C45.3452 94.7614 48.4472 95.3719 50.7371 93.8352C53.027 92.2985 53.6375 89.1964 52.1008 86.9065Z" stroke="#009865" stroke-width="2.3" stroke-miterlimit="10"/>
<path d="M28.8344 26.8255C27.2977 24.5356 24.1956 23.925 21.9057 25.4618C19.6158 26.9985 19.0053 30.1006 20.542 32.3904C22.0788 34.6803 25.1808 35.2909 27.4707 33.7541C29.7606 32.2174 30.3711 29.1153 28.8344 26.8255Z" stroke="#009865" stroke-width="2.3" stroke-miterlimit="10"/>
<path d="M93.7323 52.9544C92.1955 50.6645 89.0935 50.0539 86.8036 51.5907C84.5137 53.1274 83.9032 56.2295 85.4399 58.5193C86.9766 60.8092 90.0787 61.4198 92.3686 59.883C94.6585 58.3463 95.269 55.2442 93.7323 52.9544Z" stroke="#009865" stroke-width="2.3" stroke-miterlimit="10"/>
</svg>
