<svg width="1139" height="734" viewBox="0 0 1139 734" fill="none" xmlns="http://www.w3.org/2000/svg">
<path d="M329 354L405 354" stroke="#00E190"/>
<path d="M734 354H810" stroke="#00E190"/>
<path d="M329 628L405 628" stroke="#00E190"/>
<path d="M734 628L810 628" stroke="#00E190" stroke-width="3"/>
<path d="M970 455V463C970 476.807 958.807 488 945 488H191C177.193 488 166 499.193 166 513V525" stroke="#00E190"/>
<path d="M570 156V166C570 179.807 558.807 191 545 191H194C180.193 191 169 202.193 169 216V226" stroke="#00E190"/>
<path d="M398.25 361.549L405.25 354.275L398.25 347" stroke="#00E190" stroke-linejoin="round"/>
<path d="M398.25 635.549L405.25 628.275L398.25 621" stroke="#00E190" stroke-linejoin="round"/>
<path d="M803 635.549L810 628.275L803 621" stroke="#00E190" stroke-width="2" stroke-linejoin="round"/>
<path d="M159 518L166.275 525L173.549 518" stroke="#00E190" stroke-linejoin="round"/>
<path d="M803 361.549L810 354.275L803 347" stroke="#00E190" stroke-linejoin="round"/>
</svg>
